<?xml version="1.0" standalone="no"?>
<!DOCTYPE svg PUBLIC "-//W3C//DTD SVG 1.1//EN" "http://www.w3.org/Graphics/SVG/1.1/DTD/svg11.dtd" >
<svg xmlns="http://www.w3.org/2000/svg">
<metadata>Generated by IcoMoon</metadata>
<defs>
<font id="icomoon" horiz-adv-x="1024">
<font-face units-per-em="1024" ascent="960" descent="-64" />
<missing-glyph horiz-adv-x="1024" />
<glyph unicode="&#x20;" horiz-adv-x="512" d="" />
<glyph unicode="&#xe900;" glyph-name="cart" d="M307.2 140.8c-56.32 0-102.4-46.080-102.4-102.4s46.080-102.4 102.4-102.4 102.4 46.080 102.4 102.4-46.080 102.4-102.4 102.4zM0 960v-102.4h102.4l184.32-389.12-71.68-122.88c-5.12-15.36-10.24-35.84-10.24-51.2 0-56.32 46.080-102.4 102.4-102.4h614.4v102.4h-593.92c-5.12 0-10.24 5.12-10.24 10.24v5.122l46.080 87.040h378.88c40.96 0 71.68 20.48 87.040 51.2l184.32 332.798c10.24 10.24 10.24 15.36 10.24 25.6 0 30.72-20.48 51.2-51.2 51.2h-757.76l-46.080 102.4h-168.96zM819.2 140.8c-56.32 0-102.4-46.080-102.4-102.4s46.080-102.4 102.4-102.4 102.4 46.080 102.4 102.4-46.080 102.4-102.4 102.4z" />
<glyph unicode="&#xe901;" glyph-name="influencer" d="M511.999 188.802c-122.854 0-222.8-99.95-222.8-222.8 0-16.568 13.432-30 30-30h385.601c16.568 0 30 13.432 30 30 0 122.85-99.948 222.8-222.802 222.8zM511.999 574.401c-69.698 0-126.398-56.704-126.398-126.4s56.702-126.398 126.398-126.398 126.4 56.702 126.4 126.398c0 69.696-56.702 126.4-126.4 126.4zM641.891 865.628c-3.53 10.86-12.918 18.776-24.218 20.416l-54.43 7.908-24.34 49.322c-5.054 10.24-15.484 16.726-26.904 16.726-11.418 0-21.848-6.482-26.902-16.722l-24.344-49.324-54.428-7.908c-11.298-1.64-20.688-9.556-24.216-20.416-3.53-10.862-0.586-22.784 7.59-30.754l39.386-38.394-9.302-54.208c-1.932-11.256 2.696-22.63 11.934-29.344 9.236-6.71 21.482-7.6 31.594-2.286l48.688 25.596 48.686-25.594c4.388-2.306 9.182-3.446 13.956-3.446 0.036 0 0.070 0 0.106 0 16.542 0.034 29.938 13.452 29.938 30 0 2.302-0.26 4.546-0.75 6.702l-9.020 52.58 39.386 38.392c8.176 7.97 11.12 19.892 7.59 30.754zM1022.53 480.027c-3.53 10.862-12.918 18.778-24.218 20.418l-54.43 7.91-24.344 49.322c-5.054 10.24-15.484 16.722-26.902 16.722-11.42 0-21.85-6.484-26.902-16.724l-24.34-49.32-54.43-7.91c-11.3-1.64-20.69-9.556-24.218-20.418-3.53-10.86-0.586-22.782 7.592-30.754l39.386-38.39-9.3-54.208c-1.932-11.256 2.696-22.632 11.934-29.344 5.226-3.796 11.416-5.73 17.638-5.73 4.774 0 9.566 1.138 13.958 3.446l48.684 25.594 48.684-25.594c4.39-2.306 9.184-3.446 13.956-3.446 0.032 0 0.060 0 0.090 0 16.546 0.024 29.954 13.446 29.954 30 0 2.304-0.26 4.546-0.75 6.704l-9.020 52.578 39.388 38.39c8.176 7.974 11.12 19.896 7.59 30.754zM261.253 480.027c-3.528 10.862-12.918 18.778-24.218 20.418l-54.43 7.91-24.34 49.32c-5.052 10.24-15.482 16.724-26.902 16.724-11.418 0-21.848-6.482-26.902-16.722l-24.344-49.322-54.43-7.91c-11.3-1.64-20.69-9.556-24.218-20.418-3.53-10.86-0.586-22.782 7.592-30.754l39.386-38.39-9.3-54.208c-1.932-11.256 2.696-22.63 11.934-29.344 5.226-3.796 11.416-5.73 17.638-5.73 4.774 0 9.566 1.138 13.954 3.446l48.69 25.594 48.68-25.594c4.42-2.322 9.226-3.46 14.050-3.446 16.546 0.028 29.95 13.448 29.95 30 0 2.304-0.26 4.546-0.75 6.704l-9.020 52.578 39.388 38.39c8.178 7.972 11.122 19.894 7.592 30.754z" />
<glyph unicode="&#xe902;" glyph-name="seller" d="M648.54 645.734v-112.4h170.666v112.384l-85.504 85.35zM733.506 772.27c0.034 0 0.068-0.018 0.086-0.018 0.034 0 0.052 0.018 0.068 0.018 0.12 0 0.222-0.068 0.342-0.068 1.332-0.034 2.662-0.17 3.942-0.512 0.58-0.12 1.11-0.426 1.69-0.598 0.29-0.12 0.564-0.188 0.854-0.308 2.15-0.82 4.198-1.894 5.836-3.532l124.092-124.432 27.034 27.034-163.926 163.618-163.26-163.584 27.068-27.068 124.092 124.432c3.19 3.21 7.542 5.018 12.082 5.018zM733.866 379.734c159.982 0 290.134 130.15 290.134 290.134s-130.15 290.132-290.134 290.132c-119.040 0-221.474-72.124-266.138-174.934-13.824 2.816-27.562 4.266-41.062 4.266-122.334 0-221.866-105.268-221.866-234.666v-89.6c0-60.876 20.122-126.122 53.59-179.37l-17.51-54.324c-1.382-4.266-0.7-8.79 1.28-12.766-55.57-10.838-118.152-35.38-198.622-77.722-26.864-14.13-43.538-41.778-43.538-72.156v-115.66c0-9.44 7.646-17.068 17.066-17.068h819.2c9.438 0 17.066 7.628 17.066 17.066v115.66c0 30.378-16.674 58.026-43.52 72.158-80.47 42.342-143.052 66.884-198.622 77.722 1.98 3.976 2.662 8.5 1.28 12.766l-17.374 53.88c21.044 33.518 36.626 71.68 45.33 110.216 29.372-10.034 60.724-15.734 93.44-15.734zM284.69 215.312v0.018l-8.806 13.346 7.27 22.58c0.274-0.324 0.564-0.614 0.82-0.922 1.042-1.212 2.134-2.322 3.174-3.516 3.892-4.438 7.85-8.704 11.896-12.766 2.032-2.032 4.114-3.976 6.196-5.94 3.226-3.020 6.502-5.906 9.83-8.686 2.406-2.032 4.796-4.078 7.27-5.99 3.908-3.004 7.884-5.768 11.896-8.448 3.942-2.646 7.97-5.068 12.050-7.39 2.986-1.706 5.974-3.396 8.994-4.916 3.088-1.554 6.212-2.986 9.37-4.352 3.448-1.484 6.946-2.798 10.444-4.044 2.628-0.922 5.222-1.996 7.902-2.782 5.206-1.57 10.444-2.868 15.718-3.874l-41.352-72.5-72.672 110.182zM426.616 157.508l38.896-67.908h-77.688l38.792 67.908zM346.898-29.866l24.388 85.334h110.78l24.388-85.334h-159.556zM568.662 215.33v-0.018l-72.686-110.2-41.42 72.482c1.724 0.342 3.43 0.87 5.138 1.262 42.428 9.352 80.248 35.858 110.61 72.072l7.168-22.254-8.81-13.344zM559.924 294.348c-3.498-5.102-7.082-10.052-10.786-14.746-0.888-1.126-1.774-2.286-2.68-3.396-19.73-24.234-41.898-42.53-65.076-53.828-0.188-0.086-0.376-0.188-0.564-0.274-5.512-2.662-11.094-4.864-16.692-6.724-0.494-0.17-0.99-0.376-1.484-0.53-5.256-1.672-10.548-2.902-15.854-3.84-0.768-0.136-1.518-0.376-2.286-0.494-5.94-0.938-11.896-1.45-17.834-1.45-6.212 0-12.356 0.564-18.432 1.536-36.266 5.956-72.022 29.236-102.024 66.356-1.28 1.604-2.44 3.346-3.704 4.966-3.328 4.334-6.622 8.722-9.78 13.398-33.262 49.272-53.794 112.418-53.794 169.746v89.6c0 110.574 84.224 200.534 187.734 200.534 9.592 0 19.37-0.87 29.252-2.612-3.226-10.77-5.666-21.862-7.628-33.126-0.82-4.71-1.57-9.438-2.168-14.166-0.392-3.276-0.802-6.536-1.092-9.83-0.768-8.516-1.296-17.050-1.296-25.6 0-8.908 0.546-17.716 1.348-26.454 0.222-2.372 0.494-4.728 0.768-7.082 0.836-7.288 1.928-14.49 3.294-21.606 0.29-1.45 0.494-2.918 0.786-4.37 1.792-8.602 4.010-17.084 6.554-25.43 0.376-1.228 0.82-2.44 1.212-3.67 2.458-7.646 5.206-15.172 8.278-22.546 0.358-0.888 0.7-1.774 1.076-2.646 25.242-59.29 69.87-109.21 128-140.868 0.648-0.358 1.296-0.666 1.928-1.024 3.772-1.996 7.476-4.078 11.35-5.94-8.318-39.83-25.332-80.040-48.406-113.884zM614.4 516.266v95.352l-4.984-5c-3.192-3.208-7.526-5.018-12.066-5.018h-0.018c-4.522 0-8.858 1.81-12.066 5l-51.2 51.2c-6.656 6.674-6.656 17.46-0.018 24.116l187.374 187.734c3.192 3.226 7.544 5.018 12.066 5.018h0.018c4.522 0 8.858-1.792 12.066-4.984l188.092-187.734c3.192-3.192 5-7.544 5-12.066 0-4.54-1.792-8.874-5-12.084l-51.2-51.2c-3.192-3.192-7.526-5-12.066-5s-8.874 1.81-12.084 5.018l-4.984 5v-95.352c0-9.438-7.628-17.066-17.066-17.066h-204.8c-9.418 0-17.064 7.628-17.064 17.066z" />
<glyph unicode="&#xe903;" glyph-name="suvenia" horiz-adv-x="919" d="M743.799-64l93.511 453.679c4.956 24.121 10.574 47.912 15.53 74.347 4.296 22.8 13.217 58.816 13.217 79.964-13.548 6.609-70.712 13.217-90.538 17.182l-604.025 105.737c-11.895 1.983-34.695 7.6-47.251 7.93-34.695-149.354-72.694-344.968-103.424-498.618-5.287-25.443-20.156-80.955-20.817-102.103-0.33-14.208 13.878-11.235 57.825-18.504 114.659-19.495 226.344-39.652 341.003-60.138l299.369-52.869c14.539-2.643 31.721-6.609 45.599-6.609zM287.146 843.689c0 113.998 186.032 113.007 197.597-67.077 2.313-35.686 1.983-45.599-5.617-78.312-42.625 0-137.789 40.973-169.51 83.268-11.565 15.53-22.469 36.347-22.469 62.121zM252.121 852.28c0-72.694 35.025-113.998 89.216-146.38 25.773-15.2 47.251-24.782 77.32-33.373 29.739-8.261 58.816-17.843 95.494-17.843 4.956 62.121 8.591 52.869 8.591 127.876 0 72.364-37.669 128.867-93.842 158.936-94.503 50.886-176.78-11.235-176.78-89.216zM624.514 677.813l-46.26 3.635c-0.33 37.008 56.173 134.154 134.154 121.928 73.355-11.235 56.503-77.651 2.643-105.407-16.191-8.261-64.434-22.469-90.538-20.156zM525.716 651.71c33.373-16.191 133.493-9.252 168.849-0.33 85.251 21.808 145.719 107.389 79.303 166.867-40.973 36.347-104.416 31.391-147.702 3.304-45.599-30.069-95.824-112.346-100.45-169.841zM13.551 247.264l0.33-1.322c2.643 0.33-4.296-5.617 0.661 0.33l-0.991 0.991zM918.596 139.544l0.661 0.991c0-0.33-0.991-0.661-0.661-0.991z" />
<glyph unicode="&#xe904;" glyph-name="delivery-truck" horiz-adv-x="1520" d="M279.593 211.257c37.073 0 72.293-14.367 98.862-40.349 26.569-26.288 41.398-60.523 41.398-97.204s-14.52-70.916-41.398-97.204c-26.878-25.982-61.789-40.349-98.862-40.349-76 0-137.789 61.746-137.789 137.552s61.789 137.552 137.789 137.552zM279.593-2.713c42.634 0 78.472 34.847 78.472 76.418s-35.837 76.418-78.472 76.418c-42.016 0-76-34.235-76-76.418s33.984-76.418 76-76.418zM243.756 669.459c5.561 5.196 12.976 7.947 20.699 7.947h158.488c16.992 0 30.894-13.755 30.894-30.567v-250.651c0-16.812-13.902-30.567-30.894-30.567h-251.48c-16.992 0-30.894 13.755-30.894 30.567v167.814c0 8.559 3.707 16.812 10.195 22.62l92.992 82.837zM202.358 426.756h189.691v189.822h-115.545l-74.146-66.025v-123.797zM1034.033 211.257c37.073 0 72.293-14.367 98.862-40.349 26.569-26.288 41.398-60.523 41.398-97.204s-14.52-70.916-41.398-97.204c-26.878-25.982-61.789-40.349-98.862-40.349-76 0-137.789 61.746-137.789 137.552s61.789 137.552 137.789 137.552zM1034.033-2.713c42.634 0 78.472 34.847 78.472 76.418s-35.837 76.418-78.472 76.418c-42.016 0-76-34.235-76-76.418s33.984-76.418 76-76.418zM1240.098 173.66h62.098v81.309c0 16.812 13.902 30.567 30.894 30.567s30.894-13.755 30.894-30.567v-111.876c0-16.812-13.902-30.567-30.894-30.567h-92.992c-16.992 0-30.894 13.755-30.894 30.567s13.902 30.567 30.894 30.567zM1083.463 340.251c0 16.812 13.902 30.567 30.894 30.567h374.748c16.992 0 30.894-13.755 30.894-30.567s-13.902-30.567-30.894-30.567h-374.748c-16.992 0-30.894 13.45-30.894 30.567zM1426.39 450.598l-374.748-2.14c-16.992 0-30.894 13.45-31.203 30.261-0.309 17.118 13.593 30.873 30.585 30.873l374.748 2.14c0.309 0 0.309 0 0.309 0 16.992 0 30.894-13.45 30.894-30.261 0.309-17.118-13.593-30.873-30.585-30.873zM1363.366 589.373h-374.748c-16.992 0-30.894 13.755-30.894 30.567s13.902 30.567 30.894 30.567h374.748c16.992 0 30.894-13.755 30.894-30.567s-13.902-30.567-30.894-30.567zM14.211 630.639l221.203 181.263c5.561 4.585 12.358 7.030 19.772 7.030h260.13v110.042c0 16.812 13.902 30.567 30.894 30.567h786.878c16.992 0 30.894-13.755 30.894-30.567v-223.752c0-16.812-13.902-30.567-30.894-30.567s-30.894 13.755-30.894 30.567v193.184h-725.398v-724.747h253.333c16.992 0 30.894-13.755 30.894-30.567s-13.902-30.567-30.894-30.567h-377.22c-16.992 0-30.894 13.755-30.894 30.567s13.902 30.567 30.894 30.567h62.098v584.139h-249.008l-201.431-165.063 2.163-418.464h32.13c16.992 0 30.894-13.755 30.894-30.567s-13.902-30.567-30.894-30.567h-62.715c-16.992 0-30.894 13.45-30.894 30.261l-2.472 463.398c0.309 9.17 4.325 18.035 11.431 23.842z" />
<glyph unicode="&#xe905;" glyph-name="five-stars" horiz-adv-x="1726" d="M693.324 468.412c9.462 0 17.908 3.794 23.787 10.675 6.604 7.729 9.098 18.576 7.019 30.54l-20.751 119.431c-1.19 6.863 2.891 19.266 7.944 24.127l87.909 84.572c11.060 10.639 15.112 23.699 11.118 35.833-3.994 12.13-15.050 20.347-30.337 22.539l-121.486 17.426c-6.986 1.002-17.675 8.666-20.799 14.911l-54.332 108.637c-6.833 13.671-18.17 21.511-31.098 21.511s-24.264-7.843-31.098-21.511l-54.332-108.641c-3.12-6.241-13.809-13.905-20.791-14.907l-121.493-17.426c-15.287-2.192-26.343-10.409-30.337-22.542-3.994-12.13 0.062-25.19 11.122-35.833l87.909-84.568c5.053-4.861 9.138-17.261 7.944-24.123l-20.755-119.431c-2.079-11.968 0.411-22.815 7.015-30.544 9.837-11.519 26.969-14.005 43.297-5.533l108.667 56.385c2.283 1.182 6.859 2.45 12.851 2.45s10.569-1.268 12.851-2.45l108.66-56.385c6.575-3.413 13.139-5.142 19.513-5.142zM552.303 575.504c-12.2 0-23.98-2.626-33.18-7.405l-92.507-47.999 17.671 101.671c3.611 20.789-5.206 47.567-20.507 62.292l-74.836 71.989 103.425 14.835c21.152 3.036 44.229 19.589 53.684 38.499l46.253 92.483 46.253-92.483c9.455-18.913 32.536-35.463 53.687-38.499l103.421-14.835-74.836-71.993c-15.301-14.72-24.119-41.495-20.507-62.284l17.668-101.674-92.503 47.999c-9.207 4.775-20.992 7.405-33.187 7.405zM1296.738 468.412c9.465 0 17.908 3.794 23.787 10.675 6.604 7.729 9.098 18.579 7.015 30.544l-20.759 119.431c-1.19 6.863 2.894 19.262 7.947 24.123l87.909 84.572c11.060 10.639 15.112 23.699 11.122 35.833-3.997 12.13-15.054 20.347-30.337 22.539l-121.482 17.426c-6.986 1.002-17.675 8.666-20.799 14.911l-54.332 108.637c-6.837 13.671-18.17 21.511-31.098 21.511s-24.261-7.843-31.098-21.511l-54.332-108.634c-3.12-6.245-13.812-13.912-20.795-14.914l-121.493-17.426c-15.287-2.192-26.343-10.409-30.337-22.542-3.994-12.13 0.066-25.19 11.122-35.833l87.909-84.568c5.053-4.861 9.138-17.261 7.944-24.123l-20.751-119.431c-2.079-11.968 0.408-22.815 7.015-30.544 9.84-11.519 26.962-14.005 43.301-5.533l108.664 56.385c2.283 1.182 6.859 2.45 12.851 2.45s10.565-1.268 12.848-2.45l108.671-56.385c6.575-3.413 13.135-5.142 19.506-5.142zM1155.713 575.504c-12.203 0-23.984-2.626-33.184-7.405l-92.5-47.999 17.668 101.671c3.611 20.789-5.206 47.567-20.507 62.292l-74.836 71.989 103.425 14.835c21.148 3.036 44.222 19.585 53.684 38.499l46.253 92.483 46.25-92.483c9.458-18.913 32.539-35.463 53.691-38.499l103.418-14.835-74.832-71.993c-15.305-14.72-24.119-41.499-20.507-62.288l17.671-101.671-92.507 47.999c-9.207 4.775-20.988 7.405-33.187 7.405zM487.265 264.973l-121.493 17.437c-6.979 0.999-17.668 8.666-20.791 14.907l-54.332 108.645c-6.837 13.664-18.17 21.5-31.098 21.5s-24.261-7.84-31.098-21.508l-54.328-108.63c-3.124-6.248-13.812-13.916-20.795-14.914l-121.489-17.437c-15.283-2.185-26.343-10.405-30.337-22.532-3.997-12.137 0.058-25.201 11.118-35.847l87.909-84.561c5.053-4.865 9.138-17.271 7.944-24.134l-20.751-119.402c-2.079-11.968 0.411-22.823 7.019-30.548 9.84-11.516 26.973-14.005 43.297-5.533l108.66 56.374c2.283 1.186 6.859 2.454 12.851 2.454s10.569-1.268 12.851-2.454l108.66-56.374c6.571-3.41 13.135-5.142 19.506-5.142 9.462 0 17.912 3.794 23.791 10.678 6.604 7.729 9.098 18.579 7.015 30.54l-20.748 119.406c-1.194 6.863 2.891 19.269 7.944 24.127l87.912 84.575c11.060 10.646 15.112 23.71 11.115 35.844-3.997 12.123-15.054 20.34-30.333 22.528zM388.074 152.898c-15.301-14.728-24.115-41.506-20.504-62.288l17.664-101.653-92.503 47.991c-9.2 4.771-20.984 7.405-33.18 7.405s-23.98-2.623-33.18-7.405l-92.503-47.988 17.668 101.649c3.611 20.789-5.202 47.567-20.507 62.295l-74.843 71.993 103.425 14.843c21.148 3.029 44.229 19.578 53.691 38.502l46.25 92.476 46.253-92.483c9.462-18.917 32.543-35.466 53.687-38.495l103.429-14.843-74.846-72zM1088.763 264.973l-121.493 17.437c-6.979 0.999-17.668 8.666-20.791 14.907l-54.328 108.645c-6.837 13.664-18.17 21.5-31.098 21.5s-24.261-7.84-31.098-21.508l-54.328-108.63c-3.124-6.248-13.812-13.916-20.795-14.914l-121.489-17.437c-15.283-2.185-26.343-10.405-30.337-22.532-3.997-12.137 0.058-25.201 11.118-35.847l87.909-84.561c5.053-4.865 9.138-17.271 7.944-24.134l-20.751-119.402c-2.079-11.968 0.411-22.815 7.015-30.548 9.84-11.516 26.958-14.005 43.297-5.533l108.66 56.374c2.283 1.186 6.862 2.454 12.858 2.454 5.992 0 10.565-1.268 12.848-2.454l108.664-56.374c6.571-3.41 13.132-5.142 19.503-5.142 9.465 0 17.915 3.794 23.791 10.678 6.604 7.729 9.098 18.579 7.019 30.544l-20.751 119.402c-1.194 6.863 2.891 19.269 7.944 24.127l87.909 84.568c11.064 10.646 15.112 23.71 11.118 35.847-3.994 12.126-15.054 20.343-30.337 22.532zM989.572 152.898c-15.301-14.728-24.119-41.503-20.504-62.292l17.664-101.649-92.5 47.991c-9.196 4.771-20.984 7.405-33.18 7.405s-23.98-2.623-33.184-7.405l-92.503-47.991 17.668 101.649c3.611 20.789-5.202 47.564-20.507 62.295l-74.843 71.993 103.425 14.843c21.148 3.032 44.229 19.578 53.691 38.499l46.25 92.483 46.257-92.487c9.462-18.917 32.539-35.463 53.687-38.495l103.429-14.843-74.85-71.996zM1709.48 206.598c11.060 10.639 15.112 23.703 11.118 35.84-3.997 12.134-15.054 20.347-30.337 22.532l-121.493 17.437c-6.983 0.999-17.671 8.666-20.795 14.907l-54.328 108.648c-6.837 13.664-18.174 21.504-31.098 21.504-12.928 0-24.261-7.843-31.098-21.511l-54.332-108.637c-3.12-6.241-13.812-13.908-20.799-14.907l-121.482-17.437c-15.283-2.185-26.336-10.405-30.337-22.532-3.997-12.134 0.055-25.198 11.118-35.851l87.905-84.561c5.053-4.865 9.138-17.271 7.947-24.134l-20.751-119.402c-2.075-11.968 0.411-22.815 7.023-30.548 5.88-6.881 14.329-10.675 23.791-10.675 6.371 0 12.935 1.725 19.503 5.142l108.664 56.374c2.283 1.186 6.855 2.454 12.844 2.454 5.996 0 10.576-1.268 12.855-2.454l108.667-56.377c16.332-8.461 33.457-5.982 43.297 5.54 6.6 7.729 9.098 18.576 7.015 30.544l-20.751 119.402c-1.194 6.863 2.891 19.269 7.947 24.13l87.905 84.572zM1591.078 152.898c-15.305-14.728-24.119-41.503-20.511-62.292l17.671-101.649-92.507 47.991c-9.2 4.771-20.984 7.405-33.18 7.405s-23.98-2.63-33.173-7.405l-92.503-47.991 17.664 101.649c3.611 20.785-5.202 47.564-20.507 62.295l-74.839 71.996 103.418 14.839c21.155 3.032 44.233 19.582 53.691 38.499l46.253 92.483 46.253-92.487c9.465-18.917 32.543-35.463 53.687-38.495l103.432-14.843-74.85-71.996z" />
<glyph unicode="&#xe906;" glyph-name="idea" horiz-adv-x="912" d="M912 959.688l-97.214-71.865-97.765-225.116h-78.618l-30.87 66.066h20.169c36.893 0 66.895 29.315 66.895 65.75v66.381h33.448v99.095h-100.343v-99.095h33.448v-66.381c0-18.202-14.999-32.717-33.448-32.717h-35.604l-42.747 91.333 51.208 25.205-167.67 70.922-39.418-136.242c-1.071 81.060-68.082 146.678-150.413 146.678-82.998 0-150.511-66.676-150.511-148.645 0-49.532 25.402-95.991 66.895-123.457v-24.889h-40.503l-2.609-13.544c-8.127-41.638-8.882-84.431-2.241-127.109l-114.089-200.837 125.994-28.423v-208.152h167.235v-148.645h401.365v230.152c117.063 81.788 183.923 213.289 183.825 353.578l0.035 60.249c0 22.711-2.125 46.046-6.406 69.038l-2.476 13.693h-32.83l75.257 178.060v118.917zM661.146 893.622v33.033h33.448v-33.033h-33.448zM601.563 662.711h-63.433l-30.403 66.066h62.965l30.87-66.066zM454.595 904.093l66.477-28.129-15.688-7.596 49.869-106.563h-62.73l-40.756 88.343-14.968-7.464 17.795 61.408zM501.388 662.707h-74.369v32.717c0 18.216 14.999 33.345 33.448 33.345l10.518 0.003 30.403-66.066zM435.715 805.13l20.285-44.083c-34.786-2.313-62.428-30.688-62.428-65.618v-32.717h-66.895v24.889c33.465 22.149 56.173 56.715 63.833 95.214l45.206 22.316zM125.998 811.040c0 63.735 52.528 115.612 117.063 115.612s117.063-51.877 117.063-115.612c0-41.028-22.441-79.36-58.547-100.021l-8.344-4.755v-43.553h-33.448v101.839c19.417 6.836 33.448 25.007 33.448 46.511 0 27.317-22.511 49.549-50.171 49.549s-50.171-22.236-50.171-49.553c0-21.504 14.030-39.671 33.448-46.511v-101.839h-33.448v43.556l-8.344 4.773c-36.106 20.661-58.547 58.98-58.547 100.004zM243.061 794.523c-9.233 0-16.724 7.419-16.724 16.516 0 9.118 7.491 16.516 16.724 16.516s16.724-7.398 16.724-16.516c0-9.118-7.491-16.516-16.724-16.516zM841.424 629.674c2.427-16.513 3.649-33.262 3.649-49.546l0.035-60.367c0.102-132.312-66.007-256.213-176.601-331.411l-7.358-4.956v-214.364h-334.47v148.645h-167.238v201.465l-108.385 24.428 97.899 172.379-0.952 5.896c-6.22 36.137-6.571 74.803-1.169 107.832h694.59zM800.503 662.711h-47.109l83.366 191.951 37.075-18.233-73.333-173.718zM878.552 870.814l-18.497 9.132 18.497 13.676v-22.808zM272 528c-26.463 0-48 16-48 48h-32c0-48 35.887-80 80-80s80 32 80 80h-32c-0.003-32-21.537-48-48-48z" />
<glyph unicode="&#xe907;" glyph-name="shield" horiz-adv-x="848" d="M432 880c-8.87 0-16-7.144-16-16.001 0-8.244 6.201-15.104 14.398-15.918 9.489-0.942 17.602 6.45 17.602 15.918 0 8.87-7.143 16.001-16 16.001zM827.81 840c-55.665 0-100.952 44.86-100.952 100 0 11.044-9.041 20-20.19 20h-565.333c-11.149 0-20.19-8.956-20.19-20 0-55.14-45.287-100-100.952-100-11.149 0-20.19-8.956-20.19-20v-326.38c0-254.354 167.369-482.27 418.201-556.778 1.892-0.56 3.844-0.842 5.799-0.842s3.911 0.282 5.801 0.844c245.399 72.918 418.199 296.858 418.199 556.776v326.38c0 11.044-9.041 20-20.19 20zM807.619 493.62c0-238.896-153.894-445.784-383.619-516.706-227.894 70.356-383.619 279.118-383.619 516.706v307.804c61.805 8.796 110.826 57.354 119.705 118.576h527.828c8.88-61.222 57.9-109.78 119.705-118.576v-307.804zM756.165 776.468c-41.217 18.014-73.859 50.589-91.91 91.721-3.15 7.176-10.254 11.811-18.104 11.811h-135.131c-10.914 0-19.765-8.832-19.765-19.724s8.851-19.724 19.765-19.724h122.634c20.881-40.792 53.942-73.782 94.817-94.623v-246.98c0-193.027-116.116-359.578-296.471-426.248-180.355 66.672-296.471 233.221-296.471 426.248v246.98c40.875 20.841 73.934 53.831 94.817 94.623h122.634c10.914 0 19.765 8.832 19.765 19.724s-8.851 19.724-19.765 19.724h-135.131c-7.851 0-14.954-4.637-18.104-11.811-18.051-41.133-50.693-73.707-91.91-91.721-7.188-3.144-11.835-10.235-11.835-18.067v-259.452c0-211.469 131.062-395.772 329.406-465.818 2.133-0.753 4.362-1.13 6.594-1.13s4.461 0.377 6.594 1.13c198.179 69.987 329.406 254.178 329.406 465.818v259.452c0 7.834-4.647 14.923-11.835 18.067zM432 672c-97.046 0-176-82.542-176-184s78.954-184 176-184c97.046 0 176 82.542 176 184s-78.954 184-176 184zM432 344.889c-75.481 0-136.889 64.2-136.889 143.111s61.408 143.111 136.889 143.111c75.481 0 136.889-64.2 136.889-143.111s-61.408-143.111-136.889-143.111zM521.752 538.646c-8.333 7.139-21.837 7.139-30.172 0l-91.579-78.499-27.582 23.64c-8.333 7.139-21.837 7.139-30.172 0-8.331-7.141-8.331-18.719 0-25.861l42.666-36.571c4.169-3.568 9.626-5.354 15.087-5.354s10.918 1.787 15.085 5.356l106.666 91.429c8.331 7.141 8.331 18.719 0 25.861z" />
<glyph unicode="&#xe908;" glyph-name="cheveron-left" d="M360.96 496.998l-36.198-36.198 289.638-289.638 72.397 72.397-217.19 217.242 217.19 217.242-72.397 72.397z" />
<glyph unicode="&#xe909;" glyph-name="cheveron-right" d="M663.040 424.602l36.198 36.198-289.638 289.638-72.397-72.397 217.19-217.242-217.19-217.242 72.397-72.397 253.44 253.44z" />
<glyph unicode="&#xe90a;" glyph-name="eye" d="M512.001 587.635c-77.034 0-139.636-62.603-139.636-139.636s62.603-139.636 139.636-139.636 139.636 62.603 139.636 139.636-62.605 139.636-139.636 139.636zM512.001 797.090c-232.728 0-431.477-144.755-512.001-349.091 80.524-204.334 279.273-349.091 512.001-349.091 232.959 0 431.477 144.757 512.001 349.091-80.524 204.336-279.042 349.091-512.001 349.091zM512.001 215.273c-128.466 0-232.728 104.263-232.728 232.728s104.263 232.726 232.728 232.726 232.728-104.263 232.728-232.728-104.263-232.726-232.728-232.726z" />
<glyph unicode="&#xe90b;" glyph-name="star" d="M1023.102 564.492c-2.163 6.635-7.9 11.474-14.81 12.482l-331.576 48.188-148.284 300.453c-3.079 6.269-9.458 10.228-16.423 10.228s-13.362-3.959-16.423-10.228l-148.302-300.471-331.576-48.188c-6.91-1.008-12.629-5.829-14.81-12.482-2.145-6.617-0.367-13.912 4.637-18.769l239.948-233.881-56.656-330.256c-1.173-6.873 1.65-13.82 7.277-17.926 5.664-4.142 13.16-4.674 19.301-1.393l296.604 155.909 296.567-155.909c2.676-1.411 5.627-2.108 8.541-2.108 3.794 0 7.57 1.173 10.778 3.501 5.645 4.106 8.468 11.053 7.277 17.926l-56.637 330.238 239.948 233.9c4.986 4.894 6.782 12.171 4.619 18.787z" />
<glyph unicode="&#xe90c;" glyph-name="like" d="M1022.306 640.139c-14.947 164.519-131.395 283.881-277.126 283.881-97.089 0-185.985-52.247-236.006-135.983-49.568 84.82-134.821 136.003-230.354 136.003-145.712 0-262.179-119.362-277.106-283.881-1.182-7.267-6.026-45.512 8.705-107.881 21.23-89.96 70.266-171.786 141.773-236.577l356.747-323.741 362.871 323.721c71.507 64.811 120.544 146.618 141.773 236.597 14.731 62.349 9.886 100.594 8.724 107.861zM975.239 541.298c-19.378-82.161-64.299-157.016-129.78-216.332l-336.285-300.030-330.515 299.951c-65.599 59.435-110.5 134.27-129.898 216.431-13.943 59.021-8.212 92.362-8.192 92.579l0.295 1.989c12.801 144.136 112.863 248.768 237.956 248.768 92.303 0 173.558-56.717 212.118-147.996l18.138-42.991 18.138 42.991c37.949 89.881 123.498 147.977 217.987 147.977 125.073 0 225.155-104.631 238.212-250.638 0.039-0.315 5.77-33.676-8.173-92.697z" />
<glyph unicode="&#xe90d;" glyph-name="delete" d="M200.61-41.257c0-12.561 10.182-22.743 22.743-22.743h577.295c12.561 0 22.743 10.182 22.743 22.743v736.885h-622.781v-736.885zM639.929 570.225h85.286v-495.829h-85.286v495.829zM469.357 570.225h85.286v-495.829h-85.286v495.829zM298.785 570.225h85.286v-495.829h-85.286v495.829zM703.694 855.484v81.773c0 12.561-10.182 22.743-22.743 22.743h-337.903c-12.561 0-22.743-10.182-22.743-22.743v-110.202h-158.974c-12.561 0-22.743-10.182-22.743-22.743v-57.512c0-12.56 10.182-22.743 22.743-22.743h701.337c12.561 0 22.743 10.183 22.743 22.743v57.512c0 12.561-10.182 22.743-22.743 22.743h-158.974v28.429zM618.408 831.731h-212.817v42.983h212.817v-42.983z" />
<glyph unicode="&#xe90e;" glyph-name="edit" d="M986.553 663.76l-45.257-45.278-271.566 271.528 45.257 45.282c49.993 49.999 131.063 49.999 181.060 0l90.506-90.529c49.925-49.972 49.925-131.008 0-181.003zM352.926 120.737c-12.498-12.498-12.498-32.738 0-45.238 12.504-12.567 32.755-12.567 45.253 0l497.869 497.732-45.308 45.282-497.814-497.776zM126.623 346.987c-12.504-12.508-12.504-32.74 0-45.247 12.498-12.5 32.749-12.5 45.253 0l497.854 497.77-45.238 45.253-497.869-497.776zM714.928 754.291l-497.81-497.799c-24.997-24.949-24.934-65.508 0-90.506 25.008-25 65.502-25.116 90.565 0.068l497.81 497.706-90.565 90.531zM307.555 30.362c-15.307 15.326-22.685 34.747-25.43 54.76-6.506-1.005-13.059-1.939-19.753-1.939-34.192 0-66.306 13.365-90.495 37.554-24.189 24.25-37.502 56.32-37.502 90.508 0 6.234 0.935 12.31 1.813 18.367-20.688 2.817-39.81 11.879-54.811 26.88-1.439 1.429-1.935 3.368-3.246 4.934l-78.131-312.617 311.805 78.055c-1.374 1.251-2.929 2.188-4.25 3.499z" />
<glyph unicode="&#xe90f;" glyph-name="template" d="M810.322 952.034c-3.21 4.942-8.643 7.929-14.492 7.966-6.724 0-11.338-2.893-14.61-7.817-13.859-20.98-135.425-207.32-135.63-287.18-0.279-78.979 55.583-144.348 128.018-155.729-0.602-128.428-75.222-239.495-183.185-293.277v70.764c0 12.673-7.147 23.408-17.398 29.456v65.009c44.364 10.288 78.072 58.893 78.072 117.382 0 65.965-42.817 119.611-95.47 119.611-52.609 0-95.389-53.646-95.389-119.611 0-58.489 33.703-107.093 77.985-117.382v-65.002c-10.189-6.054-17.398-16.653-17.398-29.456v-96.116c-24.594-5.911-50.188-9.376-76.644-9.376-29.878 0-58.725 4.346-86.25 11.822v93.564c0 12.778-7.19 23.445-17.398 29.487v70.41c47.431 8.295 83.654 49.536 83.654 99.276v99.394c0 9.599-7.873 17.398-17.392 17.398-9.636 0-17.398-7.792-17.398-17.398v-99.394c0-30.443-20.844-55.919-48.865-63.605v163.031c0 9.612-7.811 17.398-17.398 17.398-9.636 0-17.398-7.78-17.398-17.398v-163.037c-28.059 7.681-48.834 33.162-48.834 63.605v99.4c0 9.599-7.768 17.398-17.398 17.398-9.568 0-17.404-7.792-17.404-17.398v-99.394c0-49.741 36.217-90.919 83.629-99.276v-70.404c-10.257-6.041-17.392-16.709-17.392-29.487v-66.126c-103.293 55.72-173.598 164.868-173.598 290.136 0 181.689 147.794 329.482 329.426 329.482 59.122 0 117.146-15.87 167.781-45.816 8.208-4.843 18.882-2.192 23.843 6.079 4.973 8.289 2.173 18.925-6.116 23.836-55.993 33.156-120.126 50.691-185.501 50.691-200.85 0-364.222-163.403-364.222-364.272 0-145.037 85.418-270.192 208.394-328.719v-211.12c0-19.236 15.554-34.795 34.789-34.795 19.254 0 34.795 15.56 34.795 34.795v186.389c27.742-6.724 56.471-10.76 86.25-10.76 26.32 0 51.92 2.949 76.644 8.246v-183.918c0-19.186 15.566-34.783 34.802-34.783 19.223 0 34.795 15.597 34.795 34.783v206.556c127.465 56.161 216.888 183.129 217.925 330.873 75.614 6.998 135.481 73.062 135.686 154.232 0.205 79.929-119.996 268.354-133.712 289.577zM555.634 415.635c-1.912 0-3.682-0.546-5.445-1.093-30.853 3.881-55.161 39.874-55.161 84.064 0 46.748 27.158 84.815 60.606 84.815 33.436 0 60.681-38.030 60.681-84.815 0-44.152-24.414-80.183-55.254-84.064-1.683 0.608-3.452 1.093-5.427 1.093zM811.8 543.492l0.068 28.133 57.564 45.301c7.538 5.948 8.823 16.87 2.844 24.426-5.979 7.544-16.907 8.835-24.383 2.893l-35.888-28.22 0.137 33.367 57.552 45.314c7.544 5.967 8.842 16.895 2.85 24.439-5.892 7.538-16.845 8.829-24.389 2.887l-35.863-28.251 0.124 52.777c0.068 9.599-7.743 17.392-17.329 17.435 0 0 0 0-0.068 0-9.568 0-17.329-7.768-17.398-17.36l-0.137-54.341-35.193 30.443c-7.277 6.234-18.217 5.538-24.532-1.782-6.24-7.271-5.507-18.261 1.77-24.551l57.831-49.995-0.143-31.939-35.255 30.437c-7.283 6.221-18.292 5.458-24.544-1.844-6.24-7.271-5.433-18.261 1.85-24.532l57.812-49.859-0.062-24.942c-54.77 9.568-96.836 60.19-96.625 121.138 0.143 52.019 73.26 178.833 115.178 245.325 41.464-67.225 113.818-195.498 113.762-247.616-0.211-60.681-42.681-110.533-97.531-119.083z" />
<glyph unicode="&#xe910;" glyph-name="add-text" d="M965.219 178.965h-80.453v80.381c0 28.298-22.959 51.245-51.243 51.245-28.301 0-51.253-22.949-51.253-51.245v-80.414h-80.377c-28.327 0-51.247-22.953-51.247-51.249 0-28.327 22.959-51.251 51.247-51.251h80.377v-80.344c0-28.298 22.955-51.253 51.253-51.253 28.286 0 51.243 22.957 51.243 51.253v80.377h80.453c28.323 0 51.243 22.959 51.243 51.251 0 28.325-22.959 51.249-51.243 51.249zM756.207 594.072c3.737-8.71 13.078-13.612 22.357-11.707 9.343 1.9 16.010 10.11 16.010 19.582l-0.029 300.801c0 31.626-25.625 57.253-57.255 57.253h-672.492c-31.634 0-57.261-25.627-57.261-57.253l0.039-300.801c0-9.502 6.673-17.681 15.977-19.582 9.318-1.905 18.657 2.997 22.392 11.707l73.41 171.505h163.192v-713.37c0-64.16 52.049-116.205 116.213-116.205 64.199 0 116.211 52.010 116.211 116.205v713.368h167.826l73.408-171.503z" />
<glyph unicode="&#xe911;" glyph-name="image" d="M1024 49.778v796.444c0 62.578-51.2 113.778-113.778 113.778h-796.444c-62.578 0-113.778-51.2-113.778-113.778v-796.444c0-62.578 51.2-113.778 113.778-113.778h796.444c62.578 0 113.778 51.2 113.778 113.778zM312.889 362.667l142.222-170.667 199.111 256 256-341.333h-796.444l199.111 256z" />
<glyph unicode="&#xe912;" glyph-name="graphic" d="M976 944h-928c-26.51 0-48-21.49-48-48v-704c0-8.836 7.164-16 16-16h364.48l-25.6-128h-34.88c-8.836 0-16-7.164-16-16v-48h-32v-32h480v32h-32v48c0 8.836-7.164 16-16 16h-34.906l-25.6 128h364.506c8.836 0 16 7.164 16 16v704c0 26.51-21.49 48-48 48zM656 16h32v-32h-352v32h320zM387.52 48l25.576 128h197.784l25.6-128h-248.96zM992 208h-960v144h960v-144zM768 800h-128c-8.836 0-16-7.164-16-16v-144h32v128h96v-64h-64v-32h64v-80h-64v-32h64v-80h-64v-32h64v-64h-96v128h-32v-128h-64v80c0 65.296 79.296 79.648 82.624 80.224 1.972 0.33 3.864 1.026 5.58 2.054 7.582 4.54 10.048 14.366 5.508 21.946l-144 240c-1.16 1.692-2.622 3.154-4.314 4.314-7.572 5.19-17.92 3.26-23.11-4.314l-144-240c-1.022-1.704-1.718-3.584-2.050-5.544-1.482-8.712 4.378-16.974 13.090-18.456 3.376-0.576 82.672-14.928 82.672-80.224v-80h-64v128h-32v-128h-16v288h16v-32h32v48c0.004 2.168-0.436 4.314-1.296 6.304l-48 112c-1.618 3.772-4.624 6.778-8.396 8.396-8.12 3.484-17.528-0.276-21.012-8.396l-48-112c-0.86-1.99-1.3-4.136-1.296-6.304v-304h-128v448h800v-448h-128v400c0 8.836-7.164 16-16 16zM464 432v16h64v-16h-64zM528 400v-16h-64v16h64zM462.832 480c-7.664 50.88-51.232 78.4-86.080 90.16l103.248 172.070v-134.23h32v134.23l103.248-172.070c-34.88-11.68-78.416-39.28-86.080-90.16h-66.336zM280.23 704l23.77 55.456 23.77-55.456h-47.54zM288 672v-288h-16v288h16zM992 384h-48v464c0 8.836-7.164 16-16 16h-832c-8.836 0-16-7.164-16-16v-464h-48v512c0 8.836 7.164 16 16 16h928c8.836 0 16-7.164 16-16v-512zM512 336c-26.51 0-48-21.49-48-48s21.49-48 48-48 48 21.49 48 48-21.49 48-48 48zM512 272c-8.836 0-16 7.164-16 16s7.164 16 16 16c8.836 0 16-7.164 16-16s-7.164-16-16-16z" />
<glyph unicode="&#xe913;" glyph-name="layers" d="M844.069 551.056l179.931 102.804-511.991 290.767-512.009-290.767 179.931-102.804-179.931-102.171 179.931-102.804-179.931-102.171 512.009-292.518 511.991 292.518-179.931 102.171 179.931 102.804-179.931 102.171zM512.009 901.768l436.69-248.001-436.69-249.511-436.709 249.511 436.709 248.001zM217.553 529.571l294.456-168.229 294.456 168.229 142.234-80.779-436.69-249.511-436.709 249.511 142.253 80.779zM948.7 243.817l-436.69-249.511-436.709 249.511 142.253 80.779 294.456-168.229 294.456 168.229 142.234-80.779z" />
<glyph unicode="&#xe914;" glyph-name="move" d="M1014.706 469.51l-167.384 157.538c-8.578 8.078-21.14 10.282-31.96 5.606-10.818-4.674-17.822-15.33-17.822-27.116v-68.924h-196.924v196.924h68.924c11.784 0 22.442 7.004 27.116 17.822s2.472 23.38-5.606 31.96l-157.54 167.386c-5.582 5.93-13.366 9.294-21.51 9.294s-15.928-3.364-21.51-9.294l-157.538-167.386c-8.078-8.58-10.28-21.142-5.606-31.96s15.33-17.822 27.116-17.822h68.924v-196.924h-196.924v68.924c0 11.784-7.004 22.442-17.822 27.116-10.82 4.674-23.38 2.472-31.96-5.606l-167.386-157.538c-5.93-5.582-9.294-13.366-9.294-21.51s3.364-15.928 9.294-21.51l167.384-157.538c8.58-8.078 21.14-10.282 31.96-5.606 10.818 4.674 17.822 15.33 17.822 27.116v68.924h196.924v-196.924h-68.924c-11.784 0-22.442-7.004-27.116-17.822s-2.472-23.38 5.606-31.96l157.538-167.384c5.58-5.932 13.366-9.294 21.51-9.294s15.928 3.364 21.51 9.294l157.538 167.384c8.078 8.58 10.28 21.142 5.606 31.96s-15.33 17.822-27.116 17.822h-68.924v196.924h196.924v-68.924c0-11.784 7.004-22.442 17.822-27.116 10.82-4.674 23.382-2.472 31.96 5.606l167.384 157.538c5.932 5.58 9.294 13.366 9.294 21.51s-3.36 15.928-9.29 21.51z" />
<glyph unicode="&#xe915;" glyph-name="add" d="M903.534 569.905h-269.629v269.629c0 66.243-55.637 120.466-121.905 120.466s-121.905-54.223-121.905-120.466v-269.629h-269.629c-66.243 0-120.466-55.637-120.466-121.905s54.223-121.905 120.466-121.905h269.629v-269.629c0-66.243 55.637-120.466 121.905-120.466s121.905 54.223 121.905 120.466v269.629h269.629c66.243 0 120.466 55.637 120.466 121.905s-54.223 121.905-120.466 121.905z" />
<glyph unicode="&#xe916;" glyph-name="checked" d="M1009.004 809.008c-19.994 19.996-52.41 19.996-72.408 0l-613.408-613.414-235.784 235.784c-19.994 19.996-52.41 19.994-72.408 0-19.996-19.994-19.996-52.41 0-72.406l271.988-271.984c19.988-19.994 52.428-19.98 72.408 0l649.612 649.612c19.996 19.994 19.994 52.412 0 72.408z" />
<glyph unicode="&#xe917;" glyph-name="share" d="M811.375 302.14c-58.897 0-111.415-28.066-145.010-71.442l-281.302 157.13c6.591 18.924 10.206 39.336 10.206 60.385 0 21.262-3.615 41.462-10.419 60.598l281.090 156.917c33.382-43.588 86.113-71.867 145.223-71.867 100.784 0 183.070 82.073 183.070 183.070s-82.073 183.070-183.070 183.070-183.070-82.073-183.070-183.070c0-21.262 3.615-41.674 10.419-60.598l-280.877-156.917c-33.382 43.801-86.113 71.867-145.223 71.867-100.784 0-183.070-82.073-183.070-183.070s82.286-183.070 183.282-183.070c59.11 0 111.841 28.279 145.435 72.080l281.090-157.13c-6.804-19.136-10.631-39.761-10.631-61.023 0-100.784 82.073-183.070 183.070-183.070s183.070 82.073 183.070 183.070-82.286 183.070-183.282 183.070zM811.375 902.379c69.316 0 125.661-56.346 125.661-125.661s-56.346-125.661-125.661-125.661-125.661 56.346-125.661 125.661 56.558 125.661 125.661 125.661zM212.625 322.551c-69.316 0-125.661 56.346-125.661 125.661s56.346 125.661 125.661 125.661 125.661-56.346 125.661-125.661-56.558-125.661-125.661-125.661zM811.375-6.379c-69.316 0-125.661 56.346-125.661 125.661s56.346 125.661 125.661 125.661 125.661-56.346 125.661-125.661c0-69.316-56.346-125.661-125.661-125.661z" />
<glyph unicode="&#xe918;" glyph-name="email_money" d="M752 823c-0.003 0-0.007 0-0.011 0-125.921 0-228-102.079-228-228 0-60.685 23.709-115.833 62.368-156.686l-0.099 0.106c8.838-9.34 18.324-17.857 28.46-25.562l0.574-0.418c0.659-0.412 1.231-0.848 1.759-1.332l-0.009 0.008c36.985-27.563 83.578-44.128 134.041-44.128 0.322 0 0.644 0.001 0.966 0.002h-0.050c125.924 0 228.005 102.081 228.005 228.005s-102.081 228.005-228.005 228.005v0zM752 608.358c39.737-0.037 71.936-32.258 71.936-72 0-35.503-25.696-65.004-59.504-70.92l-0.431-0.063v-24.714c0-6.627-5.373-12-12-12s-12 5.373-12 12v0 24.718c-34.245 5.991-59.95 35.477-60 70.977v0.005c0 6.627 5.373 12 12 12s12-5.373 12-12v0c0.033-26.295 21.184-47.64 47.401-47.986h0.033c0.2 0 0.374 0.028 0.566 0.028s0.376-0.020 0.566-0.028c26.053 0.589 46.948 21.849 46.948 47.988 0 26.339-21.214 47.723-47.488 47.997h-0.026c-39.732 0.043-71.924 32.262-71.924 72 0 35.498 25.69 64.997 59.492 70.917l0.432 0.063v21.986c0 6.627 5.373 12 12 12s12-5.373 12-12v0-21.986c34.245-5.991 59.949-35.476 60-70.975v-0.005c0-6.627-5.373-12-12-12s-12 5.373-12 12v0c0 26.51-21.49 48-48 48s-48-21.49-48-48c0-26.51 21.49-48 48-48v0zM446.428 248.626c-14.526-12.444-33.544-20.018-54.332-20.018-20.764 0-39.764 7.558-54.397 20.072l0.115-0.096-293.814 248.79v-356.374c0-0.024 0-0.051 0-0.079 0-12.821 3.57-24.808 9.769-35.021l-0.169 0.3 169.102 172.956c2.181 2.229 5.219 3.611 8.581 3.611 6.628 0 12-5.373 12-12 0-3.266-1.305-6.227-3.422-8.391l-170.45-174.836c11.493-9.525 26.342-15.363 42.55-15.54h560.038c16.209 0.176 31.028 5.99 42.621 15.568l-0.115-0.092-171.4 174.63c-2.129 2.187-3.442 5.177-3.442 8.474 0 3.37 1.372 6.42 3.588 8.621l0.001 0.001c2.167 2.146 5.15 3.473 8.443 3.473 3.335 0 6.351-1.36 8.526-3.556l0.001-0.001 170.11-173.044c6.073 9.951 9.668 21.989 9.668 34.867 0 0.021 0 0.041 0 0.062v-0.003 202.278c-49.004 2.187-93.868 18.218-131.255 44.243l0.815-0.537zM45.090 527.972l308.232-261.034c10.371-8.879 23.946-14.282 38.784-14.282 14.844 0 28.425 5.408 38.879 14.362l-0.081-0.068 159.136 134.956c-7.64 6.483-14.564 13.054-21.109 19.986l-0.117 0.126c-40.116 42.424-65.691 98.965-68.542 161.432l-0.020 0.55h-388.252c-33.288-0.081-60.963-24.013-66.845-55.607l-0.065-0.421z" />
<glyph unicode="&#xe919;" glyph-name="verified" d="M874.038 810.040c-96.704 96.702-225.278 149.96-362.038 149.96-136.762 0-265.338-53.258-362.040-149.96-96.704-96.704-149.96-225.28-149.96-362.040s53.256-265.334 149.96-362.038c96.704-96.704 225.278-149.962 362.040-149.962 136.76 0 265.334 53.258 362.038 149.962s149.962 225.278 149.962 362.038-53.258 265.334-149.962 362.040zM512-4c-249.234 0-452 202.766-452 452s202.766 452 452 452 452-202.766 452-452-202.766-452-452-452zM756.61 612.282c-11.714 11.712-30.71 11.712-42.424-0.002l-264.918-264.918-139.454 139.454c-11.714 11.714-30.71 11.714-42.426 0s-11.716-30.71 0-42.426l160.666-160.666c5.858-5.858 13.536-8.786 21.212-8.786s15.356 2.93 21.212 8.786l286.132 286.132c11.716 11.714 11.716 30.71 0 42.426z" />
<glyph unicode="&#xe91a;" glyph-name="menu" d="M982.636 489.364h-941.272c-22.844 0-41.364-18.518-41.364-41.364s18.52-41.364 41.364-41.364h941.272c22.846 0 41.364 18.518 41.364 41.364 0 22.844-18.518 41.364-41.364 41.364zM982.636 803.122h-941.272c-22.844 0-41.364-18.52-41.364-41.364s18.52-41.364 41.364-41.364h941.272c22.846 0 41.364 18.52 41.364 41.364s-18.518 41.364-41.364 41.364zM982.636 175.606h-941.272c-22.844 0-41.364-18.518-41.364-41.364s18.52-41.364 41.364-41.364h941.272c22.846 0 41.364 18.518 41.364 41.364s-18.518 41.364-41.364 41.364z" />
<glyph unicode="&#xe91b;" glyph-name="search" d="M991.284 27.298l-243.714 253.474c62.663 74.491 96.997 168.216 96.997 265.788 0 227.967-185.473 413.44-413.44 413.44s-413.44-185.473-413.44-413.44 185.473-413.44 413.44-413.44c85.582 0 167.137 25.813 236.865 74.815l245.565-255.398c10.264-10.66 24.069-16.538 38.863-16.538 14.003 0 27.287 5.339 37.371 15.046 21.427 20.618 22.11 54.808 1.492 76.253zM431.128 852.146c168.504 0 305.586-137.082 305.586-305.586s-137.082-305.586-305.586-305.586-305.586 137.082-305.586 305.586 137.082 305.586 305.586 305.586z" />
<glyph unicode="&#xe91c;" glyph-name="flip-horizontal" d="M0 0l384 320-384 313.6zM576 313.6l384-313.6v640l-384-326.4zM896 134.4l-217.6 179.2 217.6 192v-371.2zM448 640h64v-64h-64v64zM448 768h64v-64h-64v64zM448 512h64v-64h-64v64zM448 384h64v-64h-64v64zM448 256h64v-64h-64v64zM448 128h64v-64h-64v64zM448 0h64v-64h-64v64zM480 896v0c83.2 0 166.4-44.8 230.4-121.6l-70.4-70.4h192v192l-76.8-76.8c-76.8 89.6-172.8 140.8-275.2 140.8 0 0 0 0 0 0-121.6 0-230.4-64-313.6-185.6l51.2-38.4c70.4 102.4 160 160 262.4 160z" />
<glyph unicode="&#xe91d;" glyph-name="flip-vertical" d="M64 960l320-384 313.6 384zM377.6 384l-313.6-384h640l-326.4 384zM198.4 64l179.2 217.6 192-217.6h-371.2zM640 512h64v-64h-64v64zM768 512h64v-64h-64v64zM512 512h64v-64h-64v64zM384 512h64v-64h-64v64zM256 512h64v-64h-64v64zM128 512h64v-64h-64v64zM0 512h64v-64h-64v64zM960 480v0c0-83.2-44.8-166.4-121.6-230.4l-70.4 70.4v-192h192l-76.8 76.8c89.6 76.8 140.8 172.8 140.8 275.2 0 0 0 0 0 0 0 121.6-64 230.4-185.6 313.6l-38.4-51.2c102.4-70.4 160-160 160-262.4z" />
<glyph unicode="&#xe91e;" glyph-name="duplicate" d="M807.594-64h-764.379c-22.343 0-40.446 18.103-40.446 40.446v764.361c0 22.343 18.103 40.446 40.446 40.446h764.379c22.343 0 40.446-18.12 40.446-40.446v-764.361c0-22.326-18.103-40.446-40.446-40.446zM83.662 16.91h683.469v683.451h-683.469v-683.451zM980.785 114.729h-82.121c-22.343 0-40.446 18.12-40.446 40.446 0 22.343 18.103 40.446 40.446 40.446h41.675v683.469h-683.486v-44.998c0-22.343-18.103-40.446-40.446-40.446s-40.446 18.12-40.446 40.446v85.462c0 22.326 18.103 40.446 40.446 40.446h764.379c22.343 0 40.446-18.12 40.446-40.446v-764.379c0-22.326-18.103-40.446-40.446-40.446z" />
<glyph unicode="&#xe91f;" glyph-name="redo" d="M17.734 120.018c-10.364 2.188-17.734 11.247-17.734 21.611 0 358.901 426.075 435.287 524.917 448.185v164.634c0 8.099 4.491 15.584 11.746 19.346 7.216 3.839 15.853 3.301 22.57-1.036l455.171-306.467c5.988-4.030 9.596-10.786 9.596-18.31 0-7.255-3.608-14.011-9.596-18.156l-455.017-306.428c-6.756-4.414-15.431-4.875-22.647-1.113-7.216 3.839-11.631 11.4-11.631 19.423v177.224c-71.665-0.537-130.855-3.762-180.257-9.673-236.683-27.983-299.903-170.123-302.59-176.188v0c-3.57-8.176-11.592-13.435-20.191-13.435-1.42 0.038-2.994 0.115-4.338 0.384z" />
<glyph unicode="&#xe920;" glyph-name="undo" d="M1002.081 119.68c-8.791 0-16.852 5.029-20.306 13.282v0c-2.534 5.988-65.871 148.057-302.678 176.194-49.327 5.988-108.404 9.059-180.148 9.597v-177.077c0-8.176-4.414-15.585-11.67-19.5-7.217-3.762-15.854-3.224-22.571 1.267l-454.958 306.248c-6.142 4.107-9.75 11.017-9.75 18.272 0 7.332 3.608 14.011 9.75 18.31l455.149 306.286c6.718 4.645 15.278 4.952 22.571 1.113 7.293-3.915 11.631-11.324 11.631-19.27v-164.794c98.961-12.898 524.898-89.441 524.898-448.125 0-10.403-7.332-19.5-17.619-21.573-1.42-0.23-2.917-0.23-4.299-0.23z" />
<glyph unicode="&#xe921;" glyph-name="bulb" d="M628.728 65.159v-29.919c0-23.809-17.488-43.615-40.244-46.986l-7.374-27.18c-4.003-14.749-17.277-25.073-32.658-25.073h-73.113c-15.381 0-28.655 10.324-32.658 25.073l-7.164 27.18c-22.966 3.582-40.454 23.177-40.454 47.197v29.919c0 16.013 12.853 28.866 28.866 28.866h175.934c16.013-0.211 28.866-13.063 28.866-29.077zM764.207 468.438c0-68.056-26.97-129.791-70.795-175.091-33.291-34.555-54.782-78.591-61.946-125.577-3.16-20.227-20.649-35.187-41.297-35.187h-156.55c-20.438 0-38.137 14.749-41.086 34.976-7.374 46.986-29.077 91.654-62.367 125.998-42.983 44.668-69.742 105.35-70.374 172.142-1.475 140.326 110.196 253.893 250.522 254.947 140.115 1.053 253.893-112.303 253.893-252.207zM540.444 621.195c0 15.592-12.642 28.444-28.444 28.444-100.293 0-182.044-81.541-182.044-182.044 0-15.592 12.642-28.444 28.444-28.444 15.592 0 28.444 12.642 28.444 28.444 0 69.109 56.257 125.156 125.156 125.156 15.802 0 28.444 12.642 28.444 28.444zM512 803.45c15.592 0 28.444 12.642 28.444 28.444v99.661c0 15.592-12.642 28.444-28.444 28.444s-28.444-12.642-28.444-28.444v-99.661c0-15.802 12.853-28.444 28.444-28.444zM177.198 468.649c0 15.592-12.642 28.444-28.444 28.444h-99.661c-15.592 0-28.444-12.642-28.444-28.444 0-15.592 12.642-28.444 28.444-28.444h99.661c15.802 0 28.444 12.642 28.444 28.444zM974.907 497.093h-99.661c-15.592 0-28.444-12.642-28.444-28.444 0-15.592 12.642-28.444 28.444-28.444h99.661c15.592 0 28.444 12.642 28.444 28.444 0 15.592-12.642 28.444-28.444 28.444zM235.141 231.822l-70.584-70.584c-11.167-11.167-11.167-29.077 0-40.244 5.478-5.478 12.853-8.217 20.016-8.217s14.538 2.739 20.016 8.217l70.584 70.584c11.167 11.167 11.167 29.077 0 40.244-10.956 11.167-29.077 11.167-40.033 0zM768.843 697.047c7.164 0 14.538 2.739 20.016 8.217l70.584 70.584c11.167 11.167 11.167 29.077 0 40.244s-29.077 11.167-40.244 0l-70.584-70.584c-11.167-11.167-11.167-29.077 0-40.244 5.689-5.478 12.853-8.217 20.227-8.217zM235.141 705.475c5.478-5.478 12.853-8.217 20.016-8.217s14.538 2.739 20.016 8.217c11.167 11.167 11.167 29.077 0 40.244l-70.584 70.584c-11.167 11.167-29.077 11.167-40.244 0s-11.167-29.077 0-40.244l70.795-70.584zM788.859 231.822c-11.167 11.167-29.077 11.167-40.244 0s-11.167-29.077 0-40.244l70.584-70.584c5.478-5.478 12.853-8.217 20.016-8.217s14.538 2.739 20.016 8.217c11.167 11.167 11.167 29.077 0 40.244l-70.374 70.584z" />
<glyph unicode="&#xe922;" glyph-name="clock" d="M983.127 647.31c-53.988 125.867-145.729 217.406-272.647 271.536-63.434 27.054-129.892 40.873-199.322 40.873-69.418 0-135.386-13.688-198.75-40.873-125.867-53.986-218.015-145.467-272.098-271.536-27.101-63.16-40.311-129.33-40.311-198.748 0-69.431 13.21-136.15 40.311-199.324 54.083-126.069 146.243-218.099 272.098-272.098 63.376-27.185 129.33-40.86 198.75-40.86s135.887 13.819 199.312 40.86c126.917 54.131 218.659 146.243 272.658 272.098 27.183 63.376 40.871 129.892 40.871 199.324 0 69.418-13.677 135.374-40.873 198.748zM901.394 222.364c-40.192-68.928-95.254-123.61-164.601-164.039-68.928-40.192-144.451-60.461-225.623-60.461-61.022 0-119.249 11.753-174.682 35.832-55.432 24.067-103.292 55.708-143.328 95.732-40.036 40.036-71.903 88.364-95.731 143.89-23.758 55.324-35.271 114.209-35.271 175.243 0 81.184 19.946 156.324 59.912 225.061 40.108 68.988 95.182 123.728 164.039 164.041 68.846 40.311 143.879 60.473 225.049 60.473 81.184 0 156.694-20.281 225.623-60.473 69.348-40.431 124.291-95.17 164.601-164.039 40.311-68.857 60.461-143.879 60.461-225.061 0-81.185-20.018-156.838-60.449-226.199zM543.634 453.040v290.015c0 17.354-15.121 31.352-32.477 31.352-16.232 0-30.792-13.998-30.792-31.352v-294.492c0-0.562 1.123-2.808 1.123-4.481-1.123-10.079 1.685-18.477 8.398-25.202l167.409-167.397c11.202-11.202 31.913-11.202 43.107 0 12.874 12.875 12.027 31.557 0 43.669l-156.767 157.888z" />
<glyph unicode="&#xe923;" glyph-name="refresh" d="M877.714 960c-20.199 0-36.572-16.374-36.572-36.572v-133.594c-188.284 182.286-488.689 177.422-670.975-10.86-85.907-88.734-133.832-207.467-133.594-330.973 0-20.199 16.374-36.572 36.572-36.572s36.57 16.374 36.57 36.572c0.045 222.176 180.188 402.25 402.366 402.205 112.836-0.021 220.474-47.432 296.661-130.663l-162.011-54.015c-19.187-6.384-29.569-27.111-23.186-46.299s27.111-29.569 46.299-23.186l219.428 73.142c14.979 4.989 25.065 19.029 25.016 34.815v219.428c-0.002 20.196-16.376 36.57-36.574 36.57zM950.856 484.571c-20.199 0-36.572-16.374-36.572-36.572-0.045-222.176-180.188-402.25-402.366-402.205-112.836 0.021-220.474 47.432-296.661 130.663l162.011 54.015c19.187 6.384 29.569 27.111 23.186 46.299s-27.111 29.569-46.299 23.186l-219.428-73.142c-14.979-4.989-25.065-19.029-25.016-34.815v-219.428c0-20.199 16.374-36.572 36.572-36.572s36.572 16.374 36.572 36.572v133.596c188.284-182.286 488.691-177.424 670.975 10.86 85.907 88.734 133.832 207.467 133.594 330.973 0.004 20.199-16.369 36.572-36.568 36.572z" />
<glyph unicode="&#xe924;" glyph-name="cancel" d="M463.056 451.424l-453.248-453.248c-12.592-12.592-12.592-32.992 0-45.584 6.288-6.304 14.544-9.44 22.784-9.44 8.256 0 16.496 3.136 22.784 9.44l456.656 456.656 456.656-456.656c6.304-6.304 14.544-9.44 22.784-9.44s16.496 3.136 22.784 9.44c12.592 12.592 12.592 32.992 0 45.584l-453.232 453.248 453.536 453.568c12.592 12.592 12.592 32.992 0 45.584-12.592 12.576-32.992 12.576-45.568 0l-456.944-456.976-456.992 456.96c-12.592 12.576-32.976 12.576-45.568 0-12.592-12.592-12.592-32.992 0-45.584l453.568-453.552z" />
<glyph unicode="&#xe925;" glyph-name="listing" d="M49.866 485.718c0 8.805 2.153 17.818 6.454 24.193 4.301 6.38 10.21 9.462 17.725 9.462 8.405 0 14.71-2.523 18.914-7.463 4.2-4.949 6.305-11.601 6.305-19.909 0-5.834-2.078-12.72-6.23-20.627-4.152-7.912-11.438-16.915-20.244-27.002l-70.228-72.989v-30.956h149.693v35.222h-81.178l-0.449 1.726 29.225 31.713c18.989 20.667 32.012 36.455 39.088 46.938 7.066 10.483 10.602 22.652 10.602 36.296 0 20.27-6.653 36.292-19.949 47.968-13.301 11.663-31.819 17.523-55.549 17.523-22.348 0-40.298-6.934-53.846-20.825s-20.077-30.612-19.579-50.588l0.299-0.678h48.945zM50.993 705.856h-48.43v-39.625h149.693v39.625h-48.43v178.699l-101.263-15.128v-35.891h48.43zM118.989 125.265c10.184 4.649 18.32 11.099 24.4 19.354 6.085 8.255 9.122 17.285 9.122 27.068 0 19.68-7.022 34.883-21.063 45.612-14.040 10.734-32.778 16.092-56.219 16.092-20.173 0-37.331-5.341-51.473-16.022s-20.917-25.391-20.323-42.597l0.299-1.66h48.655c0 8.805 2.466 11.548 7.414 15.308 4.944 3.76 10.681 6.019 17.206 6.019 8.308 0 14.635-2.131 18.989-6.78 4.35-4.649 6.525-10.285 6.525-17.109 0-8.603-2.422-15.735-7.265-20.583-4.847-4.847-11.769-7.674-20.768-7.674h-23.497v-35.222h23.497c9.99 0 17.725-2.95 23.216-7.744 5.49-4.799 8.233-12.715 8.233-23.194 0-7.52-2.624-13.886-7.859-18.831-5.244-4.944-12.266-7.48-21.067-7.48-7.714 0-14.261 3.324-19.654 8.017s-8.083 9.607-8.083 18.412h-48.954l-0.295-1.902c-0.493-20.173 6.846-36.085 22.027-46.713s32.906-16.198 53.176-16.198c23.537 0 42.87 5.53 58.002 16.854 15.132 11.319 22.692 26.813 22.692 46.59 0 12.064-3.258 22.388-9.787 31.044-6.529 8.66-15.577 15.084-27.147 19.337zM227.103 234.762h796.897v-145.291h-796.897v145.291zM227.103 520.94h796.897v-145.291h-796.897v145.291zM227.103 815.924h796.897v-145.291h-796.897v145.291z" />
<glyph unicode="&#xe926;" glyph-name="checklist" d="M477.867 465.070h358.398v-34.141h-358.398zM477.867 174.93h358.398v-34.133h-358.398zM477.867 755.203h358.398v-34.133h-358.398zM1006.93 960h-989.859c-9.422 0-17.070-7.648-17.070-17.070v-989.859c0-9.422 7.648-17.070 17.070-17.070h989.859c9.422 0 17.070 7.648 17.070 17.070v989.859c0 9.422-7.648 17.070-17.070 17.070zM321.094 199.148c-2.391-3.344-4.781-6.688-7.172-10.047-5.883-8.227-11.758-16.453-17.625-24.695-7.445-10.414-14.883-20.828-22.313-31.219-7.047-9.883-14.109-19.766-21.156-29.641-4.75-6.641-9.492-13.297-14.234-19.938-3.906-5.461-8.297-10.391-15.531-10.906-7.391-0.531-12.344 3.93-17.156 8.758-3.664 3.664-7.352 7.352-11.023 11.023-9.078 9.078-18.172 18.18-27.258 27.258-3 3-5.984 5.984-8.992 8.992-6.672 6.672-6.672 17.461 0 24.133 6.656 6.672 17.477 6.672 24.133 0l36.969-36.953 73.625 103.070c5.477 7.68 16.125 9.438 23.805 3.977 7.633-5.477 9.406-16.148 3.93-23.813zM321.094 489.281c-1.367-1.891-2.719-3.805-4.078-5.695-3.555-4.969-7.102-9.938-10.648-14.898-4.953-6.93-9.922-13.875-14.867-20.805-5.586-7.805-11.148-15.602-16.711-23.398-5.391-7.563-10.805-15.125-16.211-22.688-4.438-6.227-8.891-12.438-13.328-18.664-2.719-3.789-5.414-7.563-8.125-11.352-3.242-4.555-7.609-8.156-13.367-8.859-4.961-0.617-10.422 1.227-13.961 4.781l-51.195 51.195c-6.672 6.68-6.672 17.461 0 24.133 6.656 6.672 17.477 6.672 24.133 0l36.961-36.945 73.633 103.063c5.477 7.68 16.125 9.438 23.805 3.977 7.664-5.508 9.438-16.18 3.961-23.844zM321.094 779.414c-3.789-5.305-7.578-10.609-11.367-15.922-8.633-12.078-17.273-24.164-25.906-36.25-9.391-13.141-18.773-26.281-28.164-39.422-6.039-8.484-12.102-16.961-18.156-25.43-3.445-4.813-7.82-8.82-14.063-9.406-11.883-1.125-21.672 12.875-29.133 20.328-10.461 10.461-20.945 20.945-31.406 31.406-1.43 1.43-2.867 2.867-4.297 4.297-6.672 6.672-6.672 17.461 0 24.133 6.656 6.672 17.477 6.672 24.133 0l36.961-36.945 73.633 103.063c5.477 7.68 16.125 9.422 23.805 3.977 7.664-5.492 9.438-16.164 3.961-23.828zM870.398 123.734c0-9.422-7.641-17.070-17.063-17.070h-392.539c-9.414 0-17.063 7.648-17.063 17.070v68.266c0 9.422 7.648 17.070 17.063 17.070h392.539c9.422 0 17.063-7.648 17.063-17.070zM870.398 413.867c0-9.422-7.641-17.070-17.063-17.070h-392.539c-9.414 0-17.063 7.648-17.063 17.070v68.266c0 9.422 7.648 17.070 17.063 17.070h392.539c9.422 0 17.063-7.648 17.063-17.070zM870.398 704c0-9.422-7.641-17.070-17.063-17.070h-392.539c-9.414 0-17.063 7.648-17.063 17.070v68.266c0 9.422 7.648 17.070 17.063 17.070h392.539c9.422 0 17.063-7.648 17.063-17.070z" />
<glyph unicode="&#xe927;" glyph-name="caret-down" d="M1004.992 717.007c-12.658 12.669-27.663 18.998-45 18.998h-895.987c-17.344 0-32.339-6.329-45.007-18.998-12.669-12.683-18.998-27.677-18.998-45.011 0-17.33 6.329-32.325 18.998-44.997l447.995-447.995c12.683-12.669 27.677-19.012 45.007-19.012s32.339 6.343 44.997 19.012l447.995 447.999c12.655 12.669 19.008 27.663 19.008 44.997 0 17.33-6.354 32.325-19.008 45.007z" />
<glyph unicode="&#xe928;" glyph-name="front-store" d="M967.111 903.111h-910.222v-113.778h910.222v113.778zM1024 334.222v113.778l-56.889 284.444h-910.222l-56.889-284.444v-113.778h56.889v-341.333h568.889v341.333h227.556v-341.333h113.778v341.333h56.889zM512 106.667h-341.333v227.556h341.333v-227.556z" />
<glyph unicode="&#xe929;" glyph-name="pencil" d="M878.102 466.281l-35.867-59.555-119.133 71.867 35.906 59.555zM449.758 115v350.453h139.094v-119.766zM489.656 604.547h59.297l30.906-92.734h-121.109zM519.305 766.82c-12.805 0-23.18 10.383-23.18 23.18 0 12.805 10.375 23.188 23.18 23.188s23.18-10.383 23.18-23.188c0-12.797-10.375-23.18-23.18-23.18zM519.305 960l111.945-149.25-79.906-159.844h-8.859v73.813c36.219 12.805 55.195 52.539 42.391 88.758-12.805 36.211-52.539 55.188-88.75 42.383-36.219-12.805-55.195-52.539-42.391-88.75 7-19.805 22.586-35.383 42.391-42.391v-73.813h-8.859l-79.906 159.844zM195.516 601.273l-92.195-60.734-7.859 65.695c-0.43 3.57-1.688 6.992-3.664 9.992l-25.5 38.719 38.719 25.5 25.5-38.719c1.977-2.992 4.633-5.492 7.742-7.297zM51.203 762.187l28.281-42.961-38.711-25.5-34.773 52.625zM174.93 532.242l57.953 38.273 170.508-258.648v-252.852l-286.531 434.922zM578.859-30.024c-19.656-33.008-62.336-43.828-95.336-24.172-33 19.648-43.82 62.336-24.172 95.336 0.141 0.234 0.281 0.469 0.422 0.695l175.047 290.313h0.398v0.625l63.938 106.063 59.555-35.977 59.648-35.844zM998.649 576.375c-11.961-19.758-28.328-36.477-47.828-48.867l-41.172-26.078-134.453 80.953 3.82 48.68c4.25 53.227 36.664 100.109 84.969 122.867l148.367 69.852 2.938-64.609c-2.32 0.258-4.664 0.156-6.953-0.305l-56.148-13.906c-52.25-12.766-92.711-54.117-104.32-106.641-2.789-12.484 5.063-24.875 17.547-27.68 1.672-0.383 3.375-0.578 5.078-0.578 10.852 0.008 20.242 7.539 22.602 18.125 7.836 35.32 35.039 63.125 70.18 71.727l54.148 13.43 2.438-53.32c1.359-29.367-6.023-58.477-21.211-83.648z" />
<glyph unicode="&#xe92a;" glyph-name="heart-filled" d="M512-23.040l-71.68 71.68c-266.24 235.52-440.32 394.24-440.32 588.8 0 158.72 122.88 281.6 281.6 281.6 87.040 0 174.080-40.96 230.4-107.52 56.32 66.56 143.36 107.52 230.4 107.52 158.72 0 281.6-122.88 281.6-281.6 0-194.56-174.080-353.28-440.32-588.8l-71.68-71.68z" />
<glyph unicode="&#xe92b;" glyph-name="home" d="M1011.172 459.992c18.562 20.415 16.77 51.705-4.002 69.87l-457.639 400.437c-20.772 18.165-54.075 17.785-74.41-0.858l-459.195-420.928c-20.335-18.643-21.333-49.893-2.21-69.77l11.513-11.99c19.1-19.878 49.973-22.248 68.912-5.277l34.318 30.733v-449.932c0-27.605 22.368-49.953 49.953-49.953h178.995c27.585 0 49.953 22.348 49.953 49.953v314.771h228.311v-314.771c-0.397-27.585 19.34-49.933 46.925-49.933h189.69c27.585 0 49.953 22.348 49.953 49.953v443.577c0 0 9.48-8.305 21.173-18.582 11.673-10.258 36.19-2.033 54.753 18.402l13.008 14.3z" />
<glyph unicode="&#xe92c;" glyph-name="round-user" d="M512 960c-281.6 0-512-230.4-512-512s230.4-512 512-512 512 230.4 512 512-230.4 512-512 512zM512 806.4c87.040 0 153.6-66.56 153.6-153.6s-66.56-153.6-153.6-153.6c-87.040 0-153.6 66.56-153.6 153.6s66.56 153.6 153.6 153.6zM512 79.36c-128 0-240.64 66.558-307.2 163.84 0 102.4 204.8 158.72 307.2 158.72s307.2-56.32 307.2-158.72c-66.56-97.28-179.2-163.84-307.2-163.84z" />
<glyph unicode="&#xe9da;" glyph-name="heart" d="M755.188 896c-107.63 0-200.258-87.554-243.164-179-42.938 91.444-135.578 179-243.216 179-148.382 0-268.808-120.44-268.808-268.832 0-301.846 304.5-380.994 512.022-679.418 196.154 296.576 511.978 387.206 511.978 679.418 0 148.392-120.43 268.832-268.812 268.832z" />
<glyph unicode="&#xea13;" glyph-name="enter" d="M384 448h-320v128h320v128l192-192-192-192zM1024 960v-832l-384-192v192h-384v256h64v-192h320v576l256 128h-576v-256h-64v320z" />
</font>
</defs>
</svg>
